<svg xmlns="http://www.w3.org/2000/svg" version="1.1" xmlns:xlink="http://www.w3.org/1999/xlink" width="512" height="512" x="0" y="0" viewBox="0 0 64 64" style="enable-background:new 0 0 512 512" xml:space="preserve" class=""><g><path d="M46 21h14c1.654 0 3-1.346 3-3V4c0-1.654-1.346-3-3-3H46c-1.654 0-3 1.346-3 3v12h-7.695l-.4-4h-5.81l-.4 4H19v2.515l5.832 4.165a9.359 9.359 0 0 0-2.702 5.219l-18.404-1.74A2.495 2.495 0 0 0 1 28.639a4.972 4.972 0 0 0 4.238 4.941l14.815 2.286C20.481 39.318 23.433 42 27 42h10c3.567 0 6.519-2.682 6.947-6.134l14.815-2.286A4.973 4.973 0 0 0 63 28.639c0-.7-.297-1.372-.815-1.843s-1.209-.707-1.911-.637l-18.404 1.74a9.365 9.365 0 0 0-2.702-5.219l4.306-3.075A2.994 2.994 0 0 0 46 21zm5-18h4v4h-4zm-6 1c0-.552.449-1 1-1h3v6h8V3h3c.551 0 1 .448 1 1v14c0 .552-.449 1-1 1H46c-.551 0-1-.448-1-1zM33.095 14l.607 6.068A9.51 9.51 0 0 0 32.615 20h-1.229c-.368 0-.73.027-1.087.068L30.905 14zm-11.374 4h6.774l-.255 2.554a9.32 9.32 0 0 0-1.76.845zM22 35v-.857L5.542 31.604A2.984 2.984 0 0 1 3 28.639c0-.189.101-.309.161-.363s.189-.138.376-.126l18.487 1.747a9.314 9.314 0 0 0 .647 2.973l1.544 3.858a8.38 8.38 0 0 0 2.303 3.223C23.99 39.705 22 37.592 22 35zm38.463-6.851a.495.495 0 0 1 .537.49 2.984 2.984 0 0 1-2.542 2.965L42 34.143V35c0 2.592-1.99 4.705-4.518 4.951a8.372 8.372 0 0 0 2.303-3.223l1.544-3.858a9.34 9.34 0 0 0 .647-2.973zM40 29.385a7.37 7.37 0 0 1-.528 2.743l-1.543 3.858C36.953 38.425 34.626 40 32 40s-4.953-1.575-5.929-4.014l-1.543-3.858A7.37 7.37 0 0 1 24 29.385C24 25.313 27.313 22 31.385 22h1.229C36.687 22 40 25.313 40 29.385zm-4.24-8.831L35.505 18h6.775l-4.76 3.399a9.32 9.32 0 0 0-1.76-.845z" fill="#ff5e14" opacity="1" data-original="#000000" class=""></path><path d="M57 15h2v2h-2zM53 15h2v2h-2zM27.153 26l-1.333 8h12.361l-1.333-8zm1.694 2H31v4h-2.819zM33 32v-4h2.153l.667 4zM13 39C6.383 39 1 44.383 1 51s5.383 12 12 12 12-5.383 12-12-5.383-12-12-12zm0 22c-.969 0-1.994-1.131-2.765-3h5.531c-.772 1.869-1.797 3-2.766 3zm-3.414-5a20.268 20.268 0 0 1-.563-4h7.954a20.268 20.268 0 0 1-.563 4zm-6.535-4h3.973c.054 1.431.222 2.774.489 4h-3.16a9.905 9.905 0 0 1-1.302-4zM13 41c.969 0 1.994 1.131 2.765 3h-5.531c.772-1.869 1.797-3 2.766-3zm3.414 5c.296 1.187.499 2.535.563 4H9.023c.064-1.465.267-2.813.563-4zm-9.39 4H3.051a9.92 9.92 0 0 1 1.302-4h3.159a23.026 23.026 0 0 0-.488 4zm11.952 2h3.973a9.92 9.92 0 0 1-1.302 4h-3.159c.266-1.226.434-2.569.488-4zm0-2a22.927 22.927 0 0 0-.489-4h3.159a9.905 9.905 0 0 1 1.302 4zm1.153-6H17.93a12.178 12.178 0 0 0-.993-2.189A10.036 10.036 0 0 1 20.129 44zM9.062 41.811A12.248 12.248 0 0 0 8.069 44H5.871a10.043 10.043 0 0 1 3.191-2.189zM5.871 58H8.07c.283.815.616 1.55.993 2.189A10.036 10.036 0 0 1 5.871 58zm11.067 2.189c.377-.64.709-1.374.993-2.189h2.199a10.058 10.058 0 0 1-3.192 2.189zM27 8.193v4.425L38.236 7 27 1.382v4.781c-7.679 1.393-13.965 5.378-17.755 11.298l1.685 1.078C14.357 13.185 20.036 9.544 27 8.193zm2-3.575L33.764 7 29 9.382zM9.815 20.462l-1.773-.924c-.353.677-.68 1.376-.972 2.077l1.846.77c.271-.65.573-1.296.899-1.923zM8.206 24.308l-1.903-.615a26.867 26.867 0 0 0-.58 2.078l1.946.459c.154-.65.334-1.296.537-1.922zM37 55.807v-4.425L25.764 57 37 62.618v-4.781c7.679-1.393 13.965-5.378 17.755-11.298l-1.685-1.078c-3.427 5.354-9.106 8.995-16.07 10.346zm-2 3.575L30.236 57 35 54.618zM54.185 43.538l1.773.924c.353-.677.68-1.376.972-2.077l-1.846-.77c-.271.65-.573 1.296-.899 1.923zM55.794 39.692l1.903.615c.219-.677.414-1.376.58-2.078l-1.946-.459c-.154.65-.334 1.296-.537 1.922z" fill="#ff5e14" opacity="1" data-original="#000000" class=""></path></g></svg>