<svg xmlns="http://www.w3.org/2000/svg" version="1.1" xmlns:xlink="http://www.w3.org/1999/xlink" width="512" height="512" x="0" y="0" viewBox="0 0 682.667 682.667" style="enable-background:new 0 0 512 512" xml:space="preserve" class=""><g><defs><clipPath id="a" clipPathUnits="userSpaceOnUse"><path d="M0 512h512V0H0Z" fill="#FF5E14" opacity="1" data-original="#000000"></path></clipPath></defs><g clip-path="url(#a)" transform="matrix(1.33333 0 0 -1.33333 0 682.667)"><path d="m0 0 38.862-20.431c7.375-3.878 15.995 2.385 14.587 10.598L46.027 33.44a10.056 10.056 0 0 0 2.891 8.899l31.44 30.646c5.967 5.817 2.675 15.951-5.571 17.149l-43.45 6.313a10.052 10.052 0 0 0-7.569 5.5L4.337 141.318c-3.688 7.473-14.343 7.473-18.03 0l-19.432-39.371a10.05 10.05 0 0 0-7.569-5.5l-43.449-6.313c-8.246-1.198-11.539-11.332-5.572-17.149l31.44-30.646a10.054 10.054 0 0 0 2.892-8.899l-7.423-43.273c-1.408-8.213 7.212-14.476 14.587-10.598L-9.356 0A10.051 10.051 0 0 0 0 0Z" style="stroke-width:15;stroke-linecap:round;stroke-linejoin:round;stroke-miterlimit:10;stroke-dasharray:none;stroke-opacity:1" transform="translate(260.678 357.576)" fill="none" stroke="#FF5E14" stroke-width="15" stroke-linecap="round" stroke-linejoin="round" stroke-miterlimit="10" stroke-dasharray="none" stroke-opacity="" data-original="#000000" opacity="1"></path><path d="M0 0v41.077a6.855 6.855 0 0 0 6.854 6.855h237.412a6.855 6.855 0 0 0 6.854-6.855V0" style="stroke-width:15;stroke-linecap:round;stroke-linejoin:round;stroke-miterlimit:10;stroke-dasharray:none;stroke-opacity:1" transform="translate(130.44 53.835)" fill="none" stroke="#FF5E14" stroke-width="15" stroke-linecap="round" stroke-linejoin="round" stroke-miterlimit="10" stroke-dasharray="none" stroke-opacity="" data-original="#000000" opacity="1"></path><path d="M0 0h-189.796a6.855 6.855 0 0 1-6.7-5.408l-7.042-32.628c-.921-4.27 2.332-8.3 6.7-8.3h298.26c4.368 0 7.621 4.03 6.7 8.3L101.08-5.408A6.855 6.855 0 0 1 94.38 0H35.768" style="stroke-width:15;stroke-linecap:round;stroke-linejoin:round;stroke-miterlimit:10;stroke-dasharray:none;stroke-opacity:1" transform="translate(303.708 53.835)" fill="none" stroke="#FF5E14" stroke-width="15" stroke-linecap="round" stroke-linejoin="round" stroke-miterlimit="10" stroke-dasharray="none" stroke-opacity="" data-original="#000000" opacity="1"></path><path d="m0 0 25.62 12.881C33.78 16.98 43.3 10.7 42.74 1.591L23-319.51h-197.04l-19.5 205.66a23.19 23.19 0 0 0 12.68 22.93l12.749 6.409" style="stroke-width:15;stroke-linecap:round;stroke-linejoin:round;stroke-miterlimit:10;stroke-dasharray:none;stroke-opacity:1" transform="translate(331.52 421.278)" fill="none" stroke="#FF5E14" stroke-width="15" stroke-linecap="round" stroke-linejoin="round" stroke-miterlimit="10" stroke-dasharray="none" stroke-opacity="" data-original="#000000" opacity="1"></path><path d="M0 0v-71.004" style="stroke-width:15;stroke-linecap:round;stroke-linejoin:round;stroke-miterlimit:10;stroke-dasharray:none;stroke-opacity:1" transform="translate(256 300.901)" fill="none" stroke="#FF5E14" stroke-width="15" stroke-linecap="round" stroke-linejoin="round" stroke-miterlimit="10" stroke-dasharray="none" stroke-opacity="" data-original="#000000" opacity="1"></path><path d="M0 0v-56.143" style="stroke-width:15;stroke-linecap:round;stroke-linejoin:round;stroke-miterlimit:10;stroke-dasharray:none;stroke-opacity:1" transform="translate(216.804 279.677)" fill="none" stroke="#FF5E14" stroke-width="15" stroke-linecap="round" stroke-linejoin="round" stroke-miterlimit="10" stroke-dasharray="none" stroke-opacity="" data-original="#000000" opacity="1"></path><path d="M0 0v-101.404" style="stroke-width:15;stroke-linecap:round;stroke-linejoin:round;stroke-miterlimit:10;stroke-dasharray:none;stroke-opacity:1" transform="translate(256 300.901)" fill="none" stroke="#FF5E14" stroke-width="15" stroke-linecap="round" stroke-linejoin="round" stroke-miterlimit="10" stroke-dasharray="none" stroke-opacity="" data-original="#000000" opacity="1"></path><path d="M0 0v-56.143" style="stroke-width:15;stroke-linecap:round;stroke-linejoin:round;stroke-miterlimit:10;stroke-dasharray:none;stroke-opacity:1" transform="translate(295.196 279.677)" fill="none" stroke="#FF5E14" stroke-width="15" stroke-linecap="round" stroke-linejoin="round" stroke-miterlimit="10" stroke-dasharray="none" stroke-opacity="" data-original="#000000" opacity="1"></path><path d="M0 0h-75.112c-8.908 0-16.129 7.222-16.129 16.129s7.221 16.129 16.129 16.129H0c8.907 0 16.128-7.222 16.128-16.129S8.907 0 0 0Z" style="stroke-width:15;stroke-linecap:round;stroke-linejoin:round;stroke-miterlimit:10;stroke-dasharray:none;stroke-opacity:1" transform="translate(295.472 133.509)" fill="none" stroke="#FF5E14" stroke-width="15" stroke-linecap="round" stroke-linejoin="round" stroke-miterlimit="10" stroke-dasharray="none" stroke-opacity="" data-original="#000000" opacity="1"></path></g></g></svg>