<svg xmlns="http://www.w3.org/2000/svg" version="1.1" xmlns:xlink="http://www.w3.org/1999/xlink" width="512" height="512" x="0" y="0" viewBox="0 0 60 60" style="enable-background:new 0 0 512 512" xml:space="preserve" class=""><g><path d="M55 0H25a5.006 5.006 0 0 0-5 5v.4L3.824 9.318a5 5 0 0 0-3.685 6.037l9.88 40.821a4.988 4.988 0 0 0 6.037 3.685L40 54.061V58a2 2 0 0 0 3.414 1.414L46 56.826l2.586 2.586A2 2 0 0 0 52 58v-6h3a5.006 5.006 0 0 0 5-5V5a5.006 5.006 0 0 0-5-5ZM40 52l-24.416 5.918a3 3 0 0 1-3.622-2.213l-9.88-40.82A3 3 0 0 1 4.3 11.262L20 7.461V12.6l-6.755 1.635a1 1 0 0 0 .234 1.972 1.01 1.01 0 0 0 .237-.028L20 14.66v3.093L14.426 19.1a1 1 0 0 0 .233 1.971.957.957 0 0 0 .236-.028L20 19.81v3.083l-4.4 1.065a1 1 0 0 0 .234 1.972.959.959 0 0 0 .236-.029L20 24.95v3.084l-3.227.784a1 1 0 0 0 .236 1.972 1.016 1.016 0 0 0 .237-.028l2.754-.67V47a5.006 5.006 0 0 0 5 5h15Zm10 6-2.586-2.586a2.047 2.047 0 0 0-2.828 0L42 58V46.049a2.661 2.661 0 0 0 3.473.53l.17-.109a.661.661 0 0 1 .716 0l.167.106A2.657 2.657 0 0 0 50 46.05Zm1.84-15.16a.654.654 0 0 1-.5.193l-.2-.009a2.648 2.648 0 0 0-2.492 1.437l-.092.179a.665.665 0 0 1-.951.254l-.166-.106a2.669 2.669 0 0 0-2.877 0l-.168.109a.653.653 0 0 1-.532.082.666.666 0 0 1-.419-.339l-.091-.176a2.673 2.673 0 0 0-2.366-1.441h-.123l-.2.009a.624.624 0 0 1-.5-.193.664.664 0 0 1-.193-.5l.009-.2a2.677 2.677 0 0 0-1.437-2.492l-.179-.092a.665.665 0 0 1-.254-.951l.106-.166a2.669 2.669 0 0 0 0-2.877l-.109-.168a.666.666 0 0 1 .257-.951l.176-.091a2.675 2.675 0 0 0 1.438-2.489l-.009-.2a.662.662 0 0 1 .193-.5.654.654 0 0 1 .5-.193l.2.009a2.676 2.676 0 0 0 2.492-1.437l.092-.179a.665.665 0 0 1 .951-.254l.166.106a2.667 2.667 0 0 0 2.878 0l.167-.107a.666.666 0 0 1 .951.257l.091.176a2.668 2.668 0 0 0 2.489 1.438l.2-.009a.62.62 0 0 1 .5.193.664.664 0 0 1 .193.5l-.009.2a2.677 2.677 0 0 0 1.437 2.492l.179.092a.665.665 0 0 1 .254.951l-.106.166a2.669 2.669 0 0 0 0 2.877l.109.168a.666.666 0 0 1-.257.951l-.176.091a2.675 2.675 0 0 0-1.438 2.489l.009.2a.662.662 0 0 1-.193.501ZM58 47a3 3 0 0 1-3 3h-3v-5.056a2.625 2.625 0 0 0 2.031-2.7l-.009-.2a.667.667 0 0 1 .361-.622l.175-.091a2.666 2.666 0 0 0 1.021-3.806l-.109-.17a.659.659 0 0 1 0-.716l.106-.167a2.665 2.665 0 0 0-1.018-3.806l-.178-.092a.67.67 0 0 1-.36-.625l.009-.2a2.663 2.663 0 0 0-2.783-2.786l-.2.009a.658.658 0 0 1-.622-.361l-.091-.175a2.666 2.666 0 0 0-3.806-1.021l-.168.107a.657.657 0 0 1-.716 0l-.167-.106a2.665 2.665 0 0 0-3.806 1.018l-.092.178a.7.7 0 0 1-.625.36l-.2-.009a2.663 2.663 0 0 0-2.786 2.783l.009.2a.667.667 0 0 1-.361.622l-.175.091a2.666 2.666 0 0 0-1.021 3.806l.109.17a.659.659 0 0 1 0 .716l-.106.167a2.665 2.665 0 0 0 1.018 3.806l.178.092a.67.67 0 0 1 .36.625l-.009.2A2.628 2.628 0 0 0 40 44.945V50H25a3 3 0 0 1-3-3V5a3 3 0 0 1 3-3h30a3 3 0 0 1 3 3Z" fill="#ff5e14" opacity="1" data-original="#000000"></path><path d="M46 31a6 6 0 1 0 6 6 6.006 6.006 0 0 0-6-6Zm0 10a4 4 0 1 1 4-4 4 4 0 0 1-4 4ZM28 7h-2a1 1 0 0 0 0 2h2a1 1 0 0 0 0-2ZM54 7H33a1 1 0 0 0 0 2h21a1 1 0 0 0 0-2ZM28 12h-2a1 1 0 0 0 0 2h2a1 1 0 0 0 0-2ZM54 12H33a1 1 0 0 0 0 2h21a1 1 0 0 0 0-2ZM28 17h-2a1 1 0 0 0 0 2h2a1 1 0 0 0 0-2ZM54 17H33a1 1 0 0 0 0 2h21a1 1 0 0 0 0-2ZM28 22h-2a1 1 0 0 0 0 2h2a1 1 0 0 0 0-2ZM38 22h-5a1 1 0 0 0 0 2h5a1 1 0 0 0 0-2ZM8.857 17.359a1 1 0 1 0-.47-1.943l-1.944.471a1 1 0 0 0 .235 1.971.957.957 0 0 0 .236-.028ZM10.034 22.219a1 1 0 1 0-.471-1.944l-1.944.471a1 1 0 0 0 .235 1.972.959.959 0 0 0 .236-.029ZM11.21 27.079a1 1 0 1 0-.471-1.943l-1.943.47a1 1 0 0 0 .234 1.972 1.016 1.016 0 0 0 .237-.028ZM11.916 30l-1.944.471a1 1 0 0 0 .234 1.972.959.959 0 0 0 .236-.029l1.945-.471A1 1 0 1 0 11.916 30Z" fill="#ff5e14" opacity="1" data-original="#000000"></path></g></svg>