<svg xmlns="http://www.w3.org/2000/svg" version="1.1" xmlns:xlink="http://www.w3.org/1999/xlink" width="512" height="512" x="0" y="0" viewBox="0 0 64 55" style="enable-background:new 0 0 512 512" xml:space="preserve" class=""><g><g fill="none" stroke="#FF5E14" stroke-miterlimit="10" stroke-width="2"><circle cx="54" cy="51" r="3" fill="" opacity="1"></circle><path d="M63 46h-3M57.4 38H54c-1.7 0-3-1.3-3-3v-6.1h5.5M0 54h64" fill="" opacity="1"></path><circle cx="22" cy="51" r="3" fill="" opacity="1"></circle><circle cx="12" cy="51" r="3" fill="" opacity="1"></circle><path d="M60 50h3v-9l-5.6-3-1.3-12.9H47V50h-8M9 50H1v-3M44 44H0M39 47v3H29v-3M25 17h20v4H25M3 21v21M43 21v21M26 1h16v11H26zM32 17v-5h4v5M22 42v-2l-7-4-7 4v2M9 26h12c.6 0 1 .4 1 1v3H8v-3c0-.6.4-1 1-1zM15 13v13M18 22h2c1.1 0 2-.9 2-2V9c0-2.2-1.8-4-4-4h-6C9.8 5 8 6.8 8 9v11c0 1.1.9 2 2 2h2M15 42V30M5 17H1v4h4M33 21v21M33 29h10M40 25h-4M33 37h10M40 33h-4" fill="" opacity="1"></path></g></g></svg>