<svg xmlns="http://www.w3.org/2000/svg" version="1.1" xmlns:xlink="http://www.w3.org/1999/xlink" width="512" height="512" x="0" y="0" viewBox="0 0 62 62" style="enable-background:new 0 0 512 512" xml:space="preserve" class=""><g><path d="m15.22 27.625.78.974.78-.974a58.382 58.382 0 0 0 8.521-14.501A9.371 9.371 0 0 0 26 9.564C26 4.291 21.631 0 16.262 0h-.523C10.369 0 6 4.291 6 9.564a9.49 9.49 0 0 0 .731 3.639 58.243 58.243 0 0 0 8.489 14.422zM15.738 2h.523C20.529 2 24 5.394 24 9.564c0 .965-.186 1.908-.583 2.883A56.221 56.221 0 0 1 16 25.379a56.387 56.387 0 0 1-7.449-13.011A7.394 7.394 0 0 1 8 9.564C8 5.394 11.471 2 15.738 2z" fill="#ff5e14" opacity="1" data-original="#000000" class=""></path><path d="M16 16c3.309 0 6-2.691 6-6s-2.691-6-6-6-6 2.691-6 6 2.691 6 6 6zm0-10c2.206 0 4 1.794 4 4s-1.794 4-4 4-4-1.794-4-4 1.794-4 4-4zM51.672 56c-1.557 0-2.186.487-3.329 1.372C46.911 58.481 44.95 60 41.341 60s-5.571-1.519-7.003-2.628C33.195 56.487 32.566 56 31.007 56c-1.558 0-2.187.487-3.329 1.372C26.247 58.481 24.285 60 20.676 60c-3.61 0-5.572-1.519-7.005-2.628C12.528 56.487 11.898 56 10.338 56s-2.19.487-3.333 1.372C5.572 58.481 3.61 60 0 60v2c4.293 0 6.757-1.906 8.229-3.046C9.273 58.146 9.461 58 10.338 58s1.065.146 2.109.954C13.919 60.093 16.382 62 20.676 62c4.292 0 6.755-1.907 8.228-3.047 1.042-.807 1.23-.953 2.103-.953.875 0 1.063.146 2.106.954C34.585 60.093 37.048 62 41.341 62c4.292 0 6.755-1.907 8.227-3.047 1.043-.807 1.231-.953 2.104-.953.872 0 1.06.146 2.103.953C55.246 60.093 57.709 62 62 62v-2c-3.607 0-5.568-1.519-7.001-2.629C53.857 56.487 53.228 56 51.672 56z" fill="#ff5e14" opacity="1" data-original="#000000" class=""></path><path d="M62 38h-2v-8h-4v-8h-4v-6h2v-2h-2v-2h2v-2h-2V8h-2v2h-2v2h2v2h-2v2h2v6h-4v-6H36v6h-2v8h-4v8h-1.414L26 40.586V30H6v8H4v1c0 4.84 1.632 9.44 4.633 13.16-1.859.35-3.028 1.238-4.076 2.049C3.315 55.17 2.243 56 0 56v2c2.926 0 4.443-1.174 5.781-2.209C7.023 54.83 8.095 54 10.338 54s3.315.83 4.558 1.791C16.233 56.826 17.75 58 20.676 58c2.925 0 4.44-1.174 5.778-2.209C27.695 54.83 28.767 54 31.007 54c2.242 0 3.313.83 4.555 1.791C36.9 56.826 38.416 58 41.341 58s4.44-1.174 5.778-2.209C48.36 54.83 49.431 54 51.672 54c2.24 0 3.312.83 4.552 1.791C57.561 56.826 59.076 58 62 58v-2c-2.24 0-3.312-.83-4.552-1.791a19.762 19.762 0 0 0-1.162-.849C59.919 49.485 62 44.335 62 39zM38 18h6v4h-6zm-2 6h18v6h-2v-4h-6v4h-2v-4h-6v4h-2zm14 6h-2v-2h2zm-8 0h-2v-2h2zm-10 2h26v6h-2v-4h-6v4h-2v-4h-6v4h-2v-4h-6v4h-2zm22 6h-2v-2h2zm-8 0h-2v-2h2zm-8 0h-2v-2h2zm-22.382 4-1-2H24v2zM24 32v2H8v-2zM8 36h16v2H8zm46.42 16.423c-.763-.259-1.657-.423-2.748-.423-2.924 0-4.44 1.174-5.777 2.209C44.654 55.17 43.582 56 41.341 56c-2.242 0-3.313-.83-4.555-1.791C35.449 53.174 33.933 52 31.007 52c-2.925 0-4.44 1.174-5.778 2.209-1.24.961-2.312 1.791-4.553 1.791-2.243 0-3.315-.83-4.557-1.791-1.198-.927-2.548-1.958-4.917-2.165-3.121-3.3-4.943-7.528-5.176-12.044h6.356l2 4h11.032l4-4h30.561c-.241 4.72-2.198 9.071-5.555 12.423z" fill="#ff5e14" opacity="1" data-original="#000000" class=""></path><path d="M37 48c1.654 0 3-1.346 3-3s-1.346-3-3-3-3 1.346-3 3 1.346 3 3 3zm0-4a1.001 1.001 0 1 1-1 1c0-.552.449-1 1-1zM45 48c1.654 0 3-1.346 3-3s-1.346-3-3-3-3 1.346-3 3 1.346 3 3 3zm0-4a1.001 1.001 0 1 1-1 1c0-.552.449-1 1-1zM53 48c1.654 0 3-1.346 3-3s-1.346-3-3-3-3 1.346-3 3 1.346 3 3 3zm0-4a1.001 1.001 0 1 1-1 1c0-.552.449-1 1-1z" fill="#ff5e14" opacity="1" data-original="#000000" class=""></path></g></svg>