<svg xmlns="http://www.w3.org/2000/svg" version="1.1" xmlns:xlink="http://www.w3.org/1999/xlink" width="512" height="512" x="0" y="0" viewBox="0 0 512.002 512.002" style="enable-background:new 0 0 512 512" xml:space="preserve" class=""><g><path d="M434.374 248.093V124.999L235.187 10 36.001 124.999v230.002L235.187 470l76.819-44.351" style="fill-rule:evenodd;clip-rule:evenodd;stroke-width:20;stroke-linecap:round;stroke-linejoin:round;stroke-miterlimit:22.9256;" fill-rule="evenodd" clip-rule="evenodd" fill="none" stroke="#ff5e14" stroke-width="20" stroke-linecap="round" stroke-linejoin="round" stroke-miterlimit="22.9256" data-original="#000000" class="" opacity="1"></path><path d="m40.473 127.581 194.714 112.418 196.172-113.26M235.187 239.999v224.625" style="fill-rule:evenodd;clip-rule:evenodd;stroke-width:20;stroke-linecap:round;stroke-linejoin:round;stroke-miterlimit:22.9256;" fill-rule="evenodd" clip-rule="evenodd" fill="none" stroke="#ff5e14" stroke-width="20" stroke-linecap="round" stroke-linejoin="round" stroke-miterlimit="22.9256" data-original="#000000" class="" opacity="1"></path><path d="M370.04 91.337 173.868 204.596v83.276l-40.113-48.618-31.963 7.005v-83.275l196.172-113.26M313.82 502.002l162.181-93.636V226.185L313.82 319.82zM358.819 424.931l72.182-41.674M358.819 378.17l36.091-20.837M339.78 258.493l-5.491-20.49 20.491-5.49M342.949 243.003l50.444 29.123" style="fill-rule:evenodd;clip-rule:evenodd;stroke-width:20;stroke-linecap:round;stroke-linejoin:round;stroke-miterlimit:22.9256;" fill-rule="evenodd" clip-rule="evenodd" fill="none" stroke="#ff5e14" stroke-width="20" stroke-linecap="round" stroke-linejoin="round" stroke-miterlimit="22.9256" data-original="#000000" class="" opacity="1"></path></g></svg>