<svg xmlns="http://www.w3.org/2000/svg" version="1.1" xmlns:xlink="http://www.w3.org/1999/xlink" width="512" height="512" x="0" y="0" viewBox="0 0 64 64" style="enable-background:new 0 0 512 512" xml:space="preserve" class=""><g><g fill="#f0bc5e"><circle cx="24" cy="58" r="4" fill="#ff5e14" opacity="1" data-original="#f0bc5e"></circle><circle cx="42" cy="58" r="4" fill="#ff5e14" opacity="1" data-original="#f0bc5e"></circle><path d="M35 38h4v4h-4zM35 14h4v4h-4z" fill="#ff5e14" opacity="1" data-original="#f0bc5e"></path></g><path d="M46 49.184V37H28v12h-2V34.438a3.982 3.982 0 0 0 1.037-.835c1.23-1.435 1.283-3.491.133-5.115L13.491 16.807a7.541 7.541 0 0 0-.916-.661A8.01 8.01 0 0 0 16.931 10H20c1.654 0 3-1.346 3-3s-1.346-3-3-3h-4.773A8.004 8.004 0 0 0 9 1C4.589 1 1 4.589 1 9c0 2.947 1.606 5.521 3.985 6.909A7.586 7.586 0 0 0 1 22.58V59c0 2.206 1.794 4 4 4 1.2 0 2.266-.542 3-1.382.734.84 1.8 1.382 3 1.382 2.206 0 4-1.794 4-4V28.554l5 4.286V52c0 1.654 1.346 3 3 3h22c1.654 0 3-1.346 3-3a2.996 2.996 0 0 0-2-2.816zM30 39h14v10H30zM21 7c0 .551-.449 1-1 1h-8.382l.171-.342A2.982 2.982 0 0 1 14.472 6H20c.551 0 1 .449 1 1zM9 3a6 6 0 0 1 3.737 1.319A4.964 4.964 0 0 0 10 6.764L9.382 8H3.09C3.569 5.167 6.033 3 9 3zm-5.91 7h11.82c-.478 2.833-2.942 5-5.91 5s-5.431-2.167-5.91-5zM13 59c0 1.103-.897 2-2 2s-2-.897-2-2V41.141c0-1.005.5-1.938 1.336-2.496l1.219-.812-1.109-1.664-1.219.811A4.992 4.992 0 0 0 7 41.141V59c0 1.103-.897 2-2 2s-2-.897-2-2V22.58A5.586 5.586 0 0 1 8.58 17c1.323 0 2.607.473 3.616 1.331L25.603 29.74c.554.856.525 1.851-.084 2.562-.691.807-2.015.909-2.82.217l-14-12-1.302 1.519L13 26.84zm32-6H23c-.551 0-1-.449-1-1V34.461A4 4 0 0 0 24 35v16h21c.551 0 1 .449 1 1s-.449 1-1 1z" fill="#ff5e14" opacity="1" data-original="#000000" class=""></path><path d="M58.864 16A8.004 8.004 0 0 0 63 9c0-4.411-3.589-8-8-8a8.004 8.004 0 0 0-6.227 3H44c-1.654 0-3 1.346-3 3s1.346 3 3 3h3.069a8.008 8.008 0 0 0 4.264 6.102l-5.333 2V16c0-1.654-1.346-3-3-3H31c-1.654 0-3 1.346-3 3v8c0 1.654 1.346 3 3 3h4.541A4.021 4.021 0 0 0 39 29c.477 0 .946-.084 1.398-.252L49 25.522V59c0 2.206 1.794 4 4 4 1.2 0 2.266-.542 3-1.382.734.84 1.8 1.382 3 1.382 2.206 0 4-1.794 4-4V23.002A8.007 8.007 0 0 0 58.864 16zm2.046-8h-6.292L54 6.764a4.962 4.962 0 0 0-2.737-2.444A5.995 5.995 0 0 1 55 3c2.967 0 5.431 2.167 5.91 5zM43 7c0-.551.449-1 1-1h5.528c1.144 0 2.172.635 2.683 1.658l.171.342H44c-.551 0-1-.449-1-1zm6.09 3h11.82c-.478 2.833-2.942 5-5.91 5s-5.431-2.167-5.91-5zM35.013 25H31c-.551 0-1-.449-1-1v-8c0-.551.449-1 1-1h12c.551 0 1 .449 1 1v2.852l-6.405 2.402A3.998 3.998 0 0 0 35.013 25zM61 59c0 1.103-.897 2-2 2s-2-.897-2-2V41.141a4.99 4.99 0 0 0-2.227-4.16l-1.219-.812-1.109 1.664 1.219.812A2.993 2.993 0 0 1 55 41.141V59c0 1.103-.897 2-2 2s-2-.897-2-2V24.772l5.404-2.027-.702-1.873-16.003 6.001c-1.012.376-2.196-.172-2.572-1.172a2.003 2.003 0 0 1 1.17-2.575l16.004-6.002c.224-.082.459-.124.697-.124A6.008 6.008 0 0 1 61 23.002z" fill="#ff5e14" opacity="1" data-original="#000000" class=""></path></g></svg>