<svg xmlns="http://www.w3.org/2000/svg" version="1.1" xmlns:xlink="http://www.w3.org/1999/xlink" width="512" height="512" x="0" y="0" viewBox="0 0 64 64" style="enable-background:new 0 0 512 512" xml:space="preserve" class=""><g><path d="M46.236 40.37h-9.575c-.866 0-1.148-.291-1.24-.386-.571-.588-.61-2.046-.567-3.534l.176-6.121a4.553 4.553 0 0 0-1.296-3.332 4.553 4.553 0 0 0-3.293-1.392h-2.957v1c0 5.607-2.331 9.244-3.72 10.913a2.96 2.96 0 0 1-2.289 1.056h-2.144a2.995 2.995 0 0 0-2.98-2.805h-4.129V34.3H2v28.817h10.222V61.65h4.13a2.995 2.995 0 0 0 2.98-2.805h2.876c.212 0 .412.083.562.233l1.182 1.182a4.561 4.561 0 0 0 3.247 1.345h13.65c1.805 0 3.353-1.343 3.525-3.057.07-.7-.078-1.397-.412-2 1.19-.464 2.08-1.534 2.207-2.808a3.43 3.43 0 0 0-.41-2c1.189-.465 2.078-1.535 2.206-2.81a3.426 3.426 0 0 0-.395-1.97c.503-.189.96-.496 1.328-.902a3.42 3.42 0 0 0 .862-2.631c-.171-1.715-1.719-3.058-3.524-3.058zM17.351 58.65c0 .551-.449 1-1 1h-4.129v-2.329h-2v3.797H4V36.3h2.111v8.276h2v-8.276h2.111v18.391h2V37.77h4.13c.55 0 1 .449 1 1V58.65zm30.064-13.934c-.27.298-.64.462-1.041.462H38.6v2h5.978c.401 0 .772.165 1.042.463.27.298.395.685.355 1.09-.07.705-.745 1.257-1.535 1.257H38.6v2h4.182c.402 0 .772.164 1.042.462.27.298.396.685.355 1.09-.07.704-.744 1.256-1.534 1.256h-4.943v2h3.285c.402 0 .771.164 1.041.463.27.297.396.685.355 1.09-.07.704-.744 1.256-1.533 1.256H27.199c-.693 0-1.344-.27-1.833-.759l-1.182-1.183a2.778 2.778 0 0 0-1.976-.818H19.35V40.574h2.124a4.955 4.955 0 0 0 3.825-1.776c1.478-1.775 3.902-5.518 4.161-11.193h.98a2.57 2.57 0 0 1 1.859.786 2.57 2.57 0 0 1 .731 1.88l-.177 6.122c-.054 1.877-.01 3.808 1.132 4.984.64.658 1.54.992 2.675.992h9.575c.79 0 1.464.552 1.534 1.257.04.405-.085.792-.355 1.09z" fill="#FF5E14" opacity="1" data-original="#000000" class=""></path><path d="M6.111 45.762h2v1.785h-2zM25.153 21.953 32 16.978l6.847 4.975-2.616-8.048 6.847-4.975h-8.463L32 .882 29.385 8.93h-8.463l6.847 4.975-2.616 8.048zm1.925-11.023h3.76L32 7.354l1.162 3.576h3.76l-3.042 2.21 1.162 3.577L32 14.507l-3.042 2.21 1.162-3.576zM64.078 16.2h-8.463L53 8.153 50.385 16.2h-8.463l6.847 4.975-2.616 8.048L53 24.25l6.847 4.974-2.616-8.048 6.847-4.975zM53 21.777l-3.042 2.21 1.162-3.576-3.042-2.21h3.76L53 14.623l1.162 3.576h3.76l-3.042 2.21 1.162 3.577zM4.153 29.223 11 24.25l6.847 4.974-2.616-8.048 6.847-4.975h-8.463L11 8.153 8.385 16.2H-.078l6.847 4.975zM6.078 18.2h3.76L11 14.624l1.162 3.576h3.76l-3.042 2.21 1.162 3.577L11 21.777l-3.042 2.21 1.162-3.576z" fill="#FF5E14" opacity="1" data-original="#000000" class=""></path></g></svg>