<svg xmlns="http://www.w3.org/2000/svg" version="1.1" xmlns:xlink="http://www.w3.org/1999/xlink" width="512" height="512" x="0" y="0" viewBox="0 0 64 64" style="enable-background:new 0 0 512 512" xml:space="preserve" class=""><g><path d="M12 46c-1.654 0-3 1.346-3 3s1.346 3 3 3 3-1.346 3-3-1.346-3-3-3zm0 4a1 1 0 1 1 0-2 1 1 0 0 1 0 2zM37 46c-1.654 0-3 1.346-3 3s1.346 3 3 3 3-1.346 3-3-1.346-3-3-3zm0 4a1 1 0 1 1 0-2 1 1 0 0 1 0 2zM49 46c-1.654 0-3 1.346-3 3s1.346 3 3 3 3-1.346 3-3-1.346-3-3-3zm0 4a1 1 0 1 1 0-2 1 1 0 0 1 0 2z" fill="#ff5e14" opacity="1" data-original="#000000" class=""></path><path d="M64 39V12a1 1 0 0 0-1-1H22a1 1 0 0 0-1 1v27a1 1 0 0 0 1 1h8.693a10.993 10.993 0 0 0-2.146 2H19V19a1 1 0 0 0-1-1H7a6.005 6.005 0 0 0-4.251 1.757A6 6 0 0 0 1 23.942l-1 9V51a1 1 0 0 0 1 1h4.7c1.139 2.414 3.576 4 6.3 4s5.168-1.591 6.301-4H30.7a6.97 6.97 0 0 0 6.3 4c2.548 0 4.775-1.373 6-3.413C44.225 54.627 46.452 56 49 56a6.97 6.97 0 0 0 6.301-4H63a1 1 0 0 0 1-1v-8a1 1 0 0 0-1-1h-5.547a11.027 11.027 0 0 0-2.147-2h7.693a1 1 0 0 0 1-1zm-36.792 5a10.875 10.875 0 0 0-1.158 6h-7.136c.048-.33.086-.662.086-1v-5zM5 34v2.181l-3 .6v-2.78h3zm-2.883-2 .778-7H13v3.764L11.382 32zM2 38.82l4.196-.839a1 1 0 0 0 .804-.98v-3h5c.379 0 .725-.214.895-.553L15 29.237v-5.236a1 1 0 0 0-1-1H3.141a3.994 3.994 0 0 1 1.022-1.829A4.014 4.014 0 0 1 7 20.001h10v16h-2a1 1 0 1 0 0 2h2v6.111a6.977 6.977 0 0 0-5-2.111c-3.859 0-7 3.141-7 7 0 .339.038.671.086 1H2v-11.18zm14.706 11.852C16.014 52.662 14.122 54 12 54s-4.014-1.338-4.711-3.343A4.842 4.842 0 0 1 7 49c0-2.757 2.243-5 5-5s5 2.243 5 5c0 .573-.098 1.131-.294 1.672zM37 54a4.983 4.983 0 0 1-4.711-3.343A4.842 4.842 0 0 1 32 49c0-2.757 2.243-5 5-5s5 2.243 5 5-2.243 5-5 5zm16.706-3.328A4.979 4.979 0 0 1 49 54c-2.757 0-5-2.243-5-5s2.243-5 5-5 5 2.243 5 5c0 .573-.098 1.131-.294 1.672zM62 50h-2.05a10.869 10.869 0 0 0-1.158-6H62zm-5.808-6.397A8.892 8.892 0 0 1 57.941 50h-2.027c.048-.33.086-.662.086-1 0-3.859-3.141-7-7-7-2.548 0-4.775 1.373-6 3.413C41.775 43.373 39.548 42 37 42c-3.859 0-7 3.141-7 7 0 .339.038.671.086 1H28.06a8.889 8.889 0 0 1 1.752-6.4 8.907 8.907 0 0 1 7.189-3.6c1.951 0 3.818.626 5.4 1.811a1 1 0 0 0 1.199 0A8.947 8.947 0 0 1 49 40a8.91 8.91 0 0 1 7.192 3.603zM62 38H23V13h39z" fill="#ff5e14" opacity="1" data-original="#000000" class=""></path><path d="M27.5 35a1 1 0 0 0 1-1V17a1 1 0 1 0-2 0v17a1 1 0 0 0 1 1zM32.5 35a1 1 0 0 0 1-1V17a1 1 0 1 0-2 0v17a1 1 0 0 0 1 1zM37.5 35a1 1 0 0 0 1-1V17a1 1 0 1 0-2 0v17a1 1 0 0 0 1 1zM42.5 35a1 1 0 0 0 1-1V17a1 1 0 1 0-2 0v17a1 1 0 0 0 1 1zM47.5 35a1 1 0 0 0 1-1V17a1 1 0 1 0-2 0v17a1 1 0 0 0 1 1zM52.5 35a1 1 0 0 0 1-1V17a1 1 0 1 0-2 0v17a1 1 0 0 0 1 1zM57.5 35a1 1 0 0 0 1-1V17a1 1 0 1 0-2 0v17a1 1 0 0 0 1 1z" fill="#ff5e14" opacity="1" data-original="#000000" class=""></path></g></svg>