<svg xmlns="http://www.w3.org/2000/svg" version="1.1" xmlns:xlink="http://www.w3.org/1999/xlink" width="512" height="512" x="0" y="0" viewBox="0 0 512 512" style="enable-background:new 0 0 512 512" xml:space="preserve" class=""><g><path d="m500 247.578-98.094-56.634c-9.744-42.799-33.74-81.647-67.861-109.713-35.542-29.234-80.504-45.335-126.605-45.335C97.468 35.896 8 125.365 8 235.337s89.468 199.439 199.44 199.439c41.962 0 81.882-12.803 115.805-37.067l67.557 39.003a7.992 7.992 0 0 0 8 0L500 378.287a7.999 7.999 0 0 0 4-6.928V254.506a7.999 7.999 0 0 0-4-6.928zm-105.198-42.261 19.926 11.504-85.198 49.189-19.925-11.504zm-57.272 83.787 13.347 7.706v27.539l-13.347-7.706zm7.999-13.856 85.198-49.189 13.348 7.706-85.197 49.189zm-43.925-6.886 19.925 11.504v41.396a8 8 0 0 0 4 6.928l29.347 16.943a7.992 7.992 0 0 0 8 0 7.999 7.999 0 0 0 4-6.928v-32.158l19.925 11.504v98.378l-85.198-49.189v-98.378zm93.198 35.333-19.925-11.504 85.197-49.189L480 254.506zm-9.069-111.616-93.634 54.059c-4.331-.359-7.887-1.048-11.193-2.173-19.781-13.254-14.76-21.159-6.513-34.147 4.822-7.595 10.229-16.111 7.542-25.403 1.12-1.8 3.39-4.284 4.865-5.104 15.969 4.677 52.827 5.524 59.971 3.566 8.418-2.309 15.433-15.452 14.161-26.536-1.21-10.546-9.32-17.132-21.695-17.617-1.811-.072-5.013.226-11.509.848-6.665.638-22.931 2.199-29.841 1.773-1.744-6.991-2.851-19.409 2.44-24.247 6.195-5.664 17.555-9.457 25.85-12.227 2.834-.946 5.247-1.759 7.329-2.569 25.153 23.766 43.73 54.64 52.227 89.777zM102.157 85.204c6.236 1.964 10.822 3.603 14.621 4.963 16.299 5.831 18.453 5.831 46.095.012 17.143-3.606 20.708-.686 26.103 3.738 4.942 4.051 11.092 9.093 24.162 10.955 7.661 1.091 9.897 2.088 10.425 2.732.219.268 1.249 2.07-.061 11.222-.167 1.165-.31 2.372-.454 3.596-.944 8.03-1.78 10.385-3.887 10.952-3.248.874-6.877 1.626-10.719 2.422-9.224 1.911-18.762 3.888-25.58 8.146-1.81 1.13-3.907 2.203-6.128 3.339-9.363 4.791-22.187 11.351-25.851 30.117-.776 3.973-7.735 5.287-17.482 6.71-10.19 1.488-20.728 3.026-24.891 12.007-3.898 8.409.933 17.852 4.906 24.222l2.017 3.24c6.974 11.22 10.474 16.851 15.746 20.135 6.066 3.777 12.205 3.06 21.501 1.978 3.496-.408 7.453-.87 12.411-1.268 6.494.22 49.011 12.269 63.016 27.655 1.644 1.807 3.567 4.457 3.387 6.823-1.441 18.981-10.383 29.531-19.85 40.701-9.248 10.91-18.811 22.191-21.094 40.655-2.444 19.76-9.122 29.055-11.621 29.76-.726-.354-8.285-4.888-14.106-37.524-6.461-36.226-16.919-45.91-28.918-54.05-7.542-5.116-12.523-8.496-12.826-35.486-.225-20.048-8.48-27.793-14.508-33.449-.887-.832-1.725-1.617-2.46-2.376-2.183-2.251-5.332-4.074-9.689-6.599-13.905-8.054-39.498-22.897-54.38-64.489 13.687-28.441 34.506-52.826 60.115-70.839zM207.44 418.776C106.291 418.776 24 336.485 24 235.337c0-20.379 3.345-39.99 9.507-58.319 17.254 35.532 42.045 49.917 54.893 57.359 2.446 1.417 5.49 3.18 6.224 3.893.999 1.03 2.016 1.984 2.999 2.906 4.995 4.687 9.309 8.733 9.457 21.96.368 32.895 8.096 40.578 19.843 48.547 8.037 5.452 16.347 11.09 22.149 43.618 2.848 15.971 6.585 28.282 11.105 36.593 6.316 11.613 13.591 14.141 18.723 14.141.141 0 .28-.002.418-.006 13.221-.354 23.863-17.549 27.111-43.807 1.698-13.726 8.984-22.321 17.42-32.275 10.202-12.036 21.766-25.678 23.599-49.835.534-7.029-2.492-13.877-8.991-20.353-18.242-18.177-65.264-32.042-74.465-31.3-5.331.424-9.675.931-13.166 1.338-5.946.693-9.874 1.151-11.188.333-2.109-1.313-5.677-7.054-10.616-14.999l-2.029-3.261c-3.536-5.669-3.896-8.247-3.914-8.973 1.778-1.372 8.533-2.358 12.634-2.957 11.76-1.717 27.866-4.068 30.874-19.476 2.174-11.132 8.909-14.577 17.435-18.939 2.422-1.239 4.927-2.521 7.317-4.013 4.391-2.743 12.504-4.424 20.351-6.05 3.898-.808 7.93-1.644 11.63-2.639 13.151-3.539 14.696-16.682 15.619-24.534.128-1.087.253-2.16.402-3.196 1.424-9.948 1.392-17.772-3.395-23.622-4.715-5.763-12.412-7.28-20.551-8.439-8.642-1.231-12.178-4.131-16.274-7.488-8.72-7.149-16.661-11.837-39.542-7.021-24.572 5.173-24.571 5.174-37.41.579-.752-.269-1.555-.556-2.405-.858 26.064-14.243 55.942-22.347 87.678-22.347 41.604 0 80.674 14.209 111.978 38.364-9.462 3.174-21.683 7.527-29.888 15.028-14.333 13.104-7.967 39.067-5.478 45.303.091.229.193.454.306.674 3.639 7.12 12.837 7.303 44.894 4.232 3.854-.369 8.216-.787 9.313-.787l.044.001c3.648.143 5.748 1.003 6.242 2.556.989 3.108-1.273 8.484-2.948 10.272-6.932.876-38.965.204-51.247-3.781-5.976-1.941-12.84.828-18.836 7.598-3.27 3.691-8.326 10.809-5.448 16.999 1.139 2.452-2.229 7.756-5.486 12.886-8.172 12.87-21.849 34.41 12.035 56.627.51.334 1.057.609 1.63.82 3.883 1.425 7.659 2.266 11.053 2.789V371.36a8 8 0 0 0 4 6.928l18.286 10.557c-29.849 19.616-64.326 29.931-100.452 29.931zm195.362-2.847v-98.378L488 268.362v98.378zm1.955-249.685a8 8 0 0 1 8-8h60l-1.711-1.336a8 8 0 0 1-1.381-11.229 8.002 8.002 0 0 1 11.229-1.382l20.03 15.642a8 8 0 0 1 0 12.611l-20.03 15.643a7.958 7.958 0 0 1-4.918 1.695 8 8 0 0 1-4.93-14.305l1.713-1.338h-60.001a8.002 8.002 0 0 1-8.001-8.001zm84.401 286.218a8 8 0 0 1-8 8H331.689l1.711 1.336a8 8 0 0 1-4.93 14.305 7.967 7.967 0 0 1-4.918-1.694l-20.03-15.642a8 8 0 0 1 0-12.611l20.03-15.643c3.482-2.722 8.51-2.102 11.229 1.381a8 8 0 0 1-1.381 11.229l-1.713 1.338h149.471c4.419.001 8 3.583 8 8.001z" fill="#ff5e14" opacity="1" data-original="#000000" class=""></path></g></svg>