<svg xmlns="http://www.w3.org/2000/svg" version="1.1" xmlns:xlink="http://www.w3.org/1999/xlink" width="512" height="512" x="0" y="0" viewBox="0 0 64 64" style="enable-background:new 0 0 512 512" xml:space="preserve" class=""><g><path d="M62.619 34.938c-1.323-1.77-3.443-2.774-6.133-2.907a14.058 14.058 0 0 0-1.531.021c-.781.059-1.997.731-2.257 2.045-.184.934-.465 2.016-.737 3.063-.251.964-.51 1.961-.699 2.864-.281 1.336.293 2.049.892 2.57.025.021.053.043.08.063l1.304.919c-.394 1.674-1.357 3.242-2.272 4.579-.883 1.291-2.058 2.858-3.509 3.897 0 0-1.411-.88-1.445-.896-1.011-.483-1.825-.426-2.718.189-.581.4-1.2.854-1.831 1.316-1.077.789-2.19 1.605-3.179 2.2-1.182.714-1.343 2.119-1.082 2.882.185.557.358 1 .54 1.381C39.46 62.224 41.924 64 44.8 64c1.687 0 3.428-.615 5.039-1.781 4.189-3.051 6.061-5.281 8.669-9.128.487-.72.933-1.379 1.339-2.027 1.895-3.004 2.903-5.444 3.855-9.328.63-2.608.246-5.021-1.083-6.798zm-.86 6.324c-1.013 4.133-2.089 6.332-3.604 8.735l-.002.003c-.395.63-.827 1.271-1.3 1.969-2.522 3.719-4.218 5.739-8.188 8.632C47.398 61.516 46.063 62 44.8 62c-2.091 0-3.846-1.316-4.946-3.72a10.131 10.131 0 0 1-.453-1.161c-.001-.003-.054-.381.215-.543 1.065-.642 2.216-1.484 3.329-2.3.615-.451 1.218-.894 1.782-1.282.154-.106.521-.126.673-.056l1.84 1.149c.319.2.723.202 1.046.01 2.015-1.212 3.533-3.209 4.63-4.813 1.151-1.682 2.374-3.711 2.714-6.009a1 1 0 0 0-.413-.964l-1.787-1.26c-.279-.246-.279-.289-.21-.617a62.8 62.8 0 0 1 .678-2.771c.28-1.075.569-2.188.765-3.18.055-.277.378-.425.431-.437.489-.029.913-.037 1.3-.019 2.071.102 3.671.83 4.626 2.107.963 1.293 1.226 3.114.739 5.128zM34.305 26.281c-.032.03-.786.719-2.305.719s-2.273-.689-2.293-.707a.999.999 0 1 0-1.414 1.414C28.425 27.84 29.653 29 32 29s3.575-1.16 3.707-1.293a.993.993 0 0 0 .006-1.396 1.006 1.006 0 0 0-1.408-.03zM32 24.95a1 1 0 0 0 1-1V21a1 1 0 1 0-2 0v2.95a1 1 0 0 0 1 1zM59 56a1 1 0 0 0-1 1v5h-4a1 1 0 1 0 0 2h5a1 1 0 0 0 1-1v-6a1 1 0 0 0-1-1z" fill="#FF5E14" opacity="1" data-original="#000000" class=""></path><path d="M34.732 51.484c1.444.723 3.114.746 4.58.06s2.52-1.98 2.892-3.555l1.915-8.136 3.55 1.244a1 1 0 0 0 .662-1.886L40 36.29v-4.346c.023-.021 2.05-1.566 2.891-3.944 0 0 2.272-.01 2.351-.03C45.437 27.922 50 26.704 50 20s-4.563-7.922-4.758-7.97c-.079-.02-.417-.03-.417-.03C44.28 8.279 41.945 0 32 0c-9.944 0-12.28 8.278-12.825 12 0 0-.338.01-.417.03C18.563 12.078 14 13.296 14 20c0 4.714 2.252 6.71 3.659 7.5-.405 1.024-.837 2.675-.297 4.279.477 1.414 1.575 2.474 3.267 3.15a1 1 0 0 0 .742-1.858c-1.134-.453-1.825-1.083-2.111-1.924-.394-1.157.053-2.46.36-3.147h1.493A11.926 11.926 0 0 0 24 31.92v4.37l-10.838 3.796a13.309 13.309 0 0 0-3.938 2.166l-.021.018-.006.003-.004.005A13.618 13.618 0 0 0 4 53v10a1 1 0 0 0 1 1h31a1 1 0 1 0 0-2h-3V50.618zM26 33.389A12.045 12.045 0 0 0 32 35c2.109 0 4.179-.564 6-1.612v3.341l-6 10.287-6-10.287zm16.22 5.799-1.963 8.342a3.236 3.236 0 0 1-1.792 2.202 3.246 3.246 0 0 1-2.838-.037l-2.225-1.113 6.047-10.366zM47.952 19H47a1 1 0 1 0 0 2h.952c-.343 3.815-2.603 4.824-3.101 5h-1.227c.156-.6.27-1.216.331-1.847l.38-3.64.001-.001.66-6.41.002-.044c.7.297 2.638 1.431 2.954 4.942zM32 2c8.923 0 10.627 7.759 10.945 11.094.042.447.052.75.054.861l-.414 3.998C41.773 16.745 41 15.063 41 13a1 1 0 0 0-1-1c-.062 0-6.189-.048-7.02-4.196a1 1 0 0 0-1.96 0C30.193 11.933 24.061 12 23.998 12A1.001 1.001 0 0 0 23 13c0 2.063-.773 3.745-1.586 4.953l-.413-3.998c.002-.111.012-.414.054-.86C21.373 9.759 23.077 2 32 2zM16.048 21H17a1 1 0 1 0 0-2h-.952c.317-3.521 2.264-4.652 2.955-4.942l.002.045 1.04 10.044a12 12 0 0 0 .332 1.854h-1.225c-.516-.184-2.761-1.2-3.104-5.001zm6.63 5.627a9.686 9.686 0 0 1-.644-2.681l-.328-3.172c1.107-1.154 2.944-3.527 3.25-6.828 1.704-.162 5.232-.812 7.044-3.414 1.812 2.603 5.34 3.252 7.044 3.414.306 3.301 2.143 5.674 3.25 6.828l-.329 3.179c-.091.94-.364 1.819-.647 2.686-.82 2.504-2.845 3.987-2.952 4.079C36.573 32.189 34.313 33 32 33s-4.573-.811-6.363-2.281a9.94 9.94 0 0 1-2.959-4.092zm1.874 11.59 6.047 10.366-2.225 1.113a3.24 3.24 0 0 1-2.838.037 3.238 3.238 0 0 1-1.792-2.202l-1.964-8.343zM6 53c0-2.437.745-4.774 2.156-6.763.45-.636.986-1.205 1.559-1.739C11.337 46.675 13 49.903 13 54v8H6zm18 9h-9v-3h9zm2 0v-4a1 1 0 0 0-1-1H15v-3c0-4.677-1.9-8.324-3.732-10.762a11.385 11.385 0 0 1 2.554-1.265l6.06-2.121 1.915 8.137a5.233 5.233 0 0 0 2.892 3.555 5.25 5.25 0 0 0 2.229.499c.805 0 1.607-.187 2.352-.559l1.73-.866V62z" fill="#FF5E14" opacity="1" data-original="#000000" class=""></path><circle cx="28.5" cy="17.5" r="1.5" fill="#FF5E14" opacity="1" data-original="#000000" class=""></circle><circle cx="35.5" cy="17.5" r="1.5" fill="#FF5E14" opacity="1" data-original="#000000" class=""></circle></g></svg>