<svg xmlns="http://www.w3.org/2000/svg" version="1.1" xmlns:xlink="http://www.w3.org/1999/xlink" width="512" height="512" x="0" y="0" viewBox="0 0 512 512" style="enable-background:new 0 0 512 512" xml:space="preserve" class=""><g><path d="M164.089 143.998h12.246c2.765 11.054 12.787 19.268 24.697 19.268s21.908-8.214 24.67-19.268h76.218c2.765 11.054 12.787 19.268 24.698 19.268s21.908-8.214 24.669-19.268h7.935c6.269 0 11.369-5.087 11.369-11.339V84.867a6.997 6.997 0 0 0-.869-3.378l-27.484-49.875a7 7 0 0 0-6.131-3.622h-43.498l-.247-13.123a7 7 0 0 0-6.999-6.868H159.488a7 7 0 0 0-7 7.016l.26 117.643c0 6.252 5.087 11.339 11.34 11.339zm36.943 5.268c-6.317 0-11.457-5.127-11.457-11.429s5.14-11.457 11.457-11.457 11.429 5.14 11.429 11.457-5.127 11.429-11.429 11.429zm125.586 0c-6.318 0-11.458-5.127-11.458-11.429s5.14-11.457 11.458-11.457 11.428 5.14 11.428 11.457-5.126 11.429-11.428 11.429zm24.19-19.268c-3.31-10.212-12.9-17.618-24.189-17.618s-20.903 7.406-24.217 17.618h-9.661V81.133h29.65l2.687 6.432a7 7 0 0 0 6.459 4.301h25.055v38.132h-5.783zm-18.836-88.007 19.769 35.875h-15.543l-2.687-6.432a7 7 0 0 0-6.459-4.301H292.74V41.991zM278.494 22l.246 13.045v94.953h-53.518c-3.31-10.212-12.9-17.618-24.19-17.618s-20.903 7.406-24.217 17.618h-10.072L166.504 22zM122.949 265.299a7 7 0 0 1-7 7h-10.386a7 7 0 1 1 0-14h10.386a7 7 0 0 1 7 7zm77.39 136.896a7 7 0 1 0 0-14h-1.245V271.634a7 7 0 0 0-3.34-5.967l-81.323-49.875a7 7 0 0 0-7.319 0L25.79 265.667a7.001 7.001 0 0 0-3.34 5.967v116.561h-1.245a7 7 0 1 0 0 14H200.34zm-139.56-79.066h99.956v6.454H60.779zm99.955-14H60.779v-6.454h99.956v6.454zm-99.955 34.454h99.956v44.612H60.779zm113.955 44.612v-92.52a7 7 0 0 0-7-7H53.779a7 7 0 0 0-7 7v92.52h-10.33V275.553l74.322-45.582 74.323 45.582v112.642h-10.359zm316.063 0h-1.332v-89.366a7.003 7.003 0 0 0-2.912-5.683l-38.766-27.888a7 7 0 0 0-11.088 5.682v14.229l-27.679-19.912a6.999 6.999 0 0 0-11.088 5.682v14.223l-27.647-19.904a7 7 0 0 0-11.09 5.681v27.224h-8.067l-7.634-62.498c-.538-4.571-4.045-7.889-8.341-7.889h-16.982c-4.312 0-7.832 3.318-8.366 7.858l-7.638 62.529h-15.038a7 7 0 0 0-7 7v83.03h-1.332a7 7 0 1 0 0 14h212a7 7 0 1 0 0-14zm-117.602-103.59 27.647 19.904a6.998 6.998 0 0 0 11.09-5.681v-14.229l27.679 19.912a6.999 6.999 0 0 0 11.088-5.682V284.6l24.766 17.816v85.779h-102.27v-83.03c0-.225-.013-.446-.034-.666h.034zm-50.037-42.827h6.978l6.888 56.387h-20.753l6.888-56.387zm-29.029 146.417v-76.03h65.066v76.03zM374.7 182.936a7 7 0 0 1 7 7c0 8.741-7.099 15.853-15.824 15.853H335.76c-1.145 0-2.113.968-2.113 2.113v4.918a7 7 0 1 1-14 0v-4.918c0-8.885 7.228-16.113 16.113-16.113h30.116c.972 0 1.824-.866 1.824-1.853a7 7 0 0 1 7-7zm40.647 154.369h-20.685v-14h20.685zm38.65 0h-20.714v-14h20.714zm-38.65 29.856h-20.685v-14h20.685zm38.65 0h-20.714v-14h20.714zm-425.051-124.1a7.003 7.003 0 0 0 8.307-4.703c13.303-42.204 51.282-84.195 75.387-100.393l7.086 6.565a6.998 6.998 0 0 0 11.755-4.966l1.07-44.234a7.002 7.002 0 0 0-7.717-7.132L80.86 92.74a7 7 0 0 0-4.038 12.098l5.969 5.53c-31.008 35.405-51.408 78.38-59.121 124.736a7.002 7.002 0 0 0 5.274 7.957zm68.795-128.392a7 7 0 0 0-.077-9.59l20.7-2.138-.503 20.796c-2.291-1.855-5.451-2.037-7.91-.61s-.008.004-.012.006l-.08.047c-13.938 8.109-33.739 26.079-51.319 48.549 10.14-20.664 23.301-39.875 39.202-57.061zm343.848 96.41-9.249 2.866a7 7 0 0 0-1.575 12.662l37.783 23.057a7.002 7.002 0 0 0 10.035-3.113l18.081-40.357a6.999 6.999 0 0 0-8.46-9.548l-7.793 2.415c-15.157-44.571-42.175-83.731-78.467-113.585a7 7 0 0 0-9.61 10.132c29.851 32.607 47.247 86.491 49.255 115.473zm27.622-1.222a7.002 7.002 0 0 0 8.352 4.728l-8.507 18.987-17.782-10.852c2.773-1.05 4.526-3.71 4.516-6.567s0-.003 0-.005l-.003-.114c-.077-16.379-5.513-41.975-15.934-67.991 12.607 18.933 22.508 39.709 29.357 61.813zm-56.326 214.67c-75.501 55.369-182.432 51.32-245.814 15.575l3.505-6.677a6.999 6.999 0 0 0-7.846-10.057l-42.99 10.415a6.998 6.998 0 0 0-4.894 9.294l15.738 41.341a7 7 0 0 0 12.731.78l4.118-7.796c33.346 17.42 70.724 26.599 108.566 26.599 62.738 0 121.685-24.464 165.981-68.886 2.583-2.59 2.736-6.73.353-9.504s-6.499-3.247-9.449-1.083zM256 490c-37.857 0-75.215-9.763-108.035-28.233l-.415.737c-.043-.024-.081-.051-.125-.074a6.999 6.999 0 0 0-9.256 2.562l-7.413-19.473 20.247-4.905a7 7 0 0 0 3.121 9.092 6.94 6.94 0 0 0 2.948.789c34.963 20.728 80.141 31.298 127.695 29.793 20.383-.644 40.353-3.548 59.336-8.529C316.68 483.718 286.827 490 255.999 490z" fill="#ff5e14" opacity="1" data-original="#000000" class=""></path></g></svg>