<svg xmlns="http://www.w3.org/2000/svg" version="1.1" xmlns:xlink="http://www.w3.org/1999/xlink" width="512" height="512" x="0" y="0" viewBox="0 0 512 512" style="enable-background:new 0 0 512 512" xml:space="preserve" class=""><g><g data-name="OUTLINE"><path d="M144 448h24v16h-24zM192 448h24v16h-24zM240 448h24v16h-24zM288 448h24v16h-24zM336 448h24v16h-24zM384 448h24v16h-24zM432 448h24v16h-24zM480 448h16v16h-16z" fill="#ff5e14" opacity="1" data-original="#000000" class=""></path><path d="M16 392h144v24h-42.713a132.376 132.376 0 0 0-94.225 39.03A24 24 0 0 0 40.032 496H496v-16H40.032a8 8 0 0 1-5.656-13.657q1.192-1.193 2.416-2.343H96a24.027 24.027 0 0 0 24-24v-8h376v-16h-56v-24h56v-16H16zm88 48a8.01 8.01 0 0 1-8 8H58.078A116.052 116.052 0 0 1 104 432.748zm248-48h72v24h-72zm-88 0h72v24h-72zm-88 0h72v24h-72zM80 272h16v16H80zM176 272h16v16h-16z" fill="#ff5e14" opacity="1" data-original="#000000" class=""></path><path d="M256 232v-24a16.018 16.018 0 0 0-16-16h-16v-24a24.027 24.027 0 0 0-24-24H72a24.027 24.027 0 0 0-24 24v24H32a16.018 16.018 0 0 0-16 16v24h16v-24h16v88a24.038 24.038 0 0 0 16 22.624V336a24 24 0 0 0 48 0v-16h48v16a24 24 0 0 0 48 0v-17.376A24.038 24.038 0 0 0 224 296v-88h16v24zM96 160h80v16H96zm0 176a8 8 0 0 1-16 0v-16h16zm96 0a8 8 0 0 1-16 0v-16h16zm16-40a8.01 8.01 0 0 1-8 8H72a8.01 8.01 0 0 1-8-8v-40h144zm0-56H64v-72a8.01 8.01 0 0 1 8-8h8v18a14.016 14.016 0 0 0 14 14h84a14.016 14.016 0 0 0 14-14v-18h8a8.01 8.01 0 0 1 8 8zM447.063 176h-16.504l-8-40H392v-32h-16v32h-30.559l-8 40h-16.503l-8.025 64.194L272 249.636V256a83.266 83.266 0 0 0 48.23 75.378L384 360.811l63.77-29.433A83.266 83.266 0 0 0 496 256v-6.364l-40.913-9.442zm-88.504-24h50.882l4.8 24H353.76zm-23.497 40h97.875l5.546 44.363L384 223.79l-54.483 12.573zm106.003 124.851L384 343.19l-57.065-26.338a67.248 67.248 0 0 1-38.636-54.556L376 242.057V312h16v-69.943l87.701 20.238a67.248 67.248 0 0 1-38.636 54.556zM43.847 128H322.47a23.94 23.94 0 0 0 22.827-16.588L376.275 16h-48.4l-30.528 56H181.455l39.17-56h-67.08l-47.17 56h-62a27.67 27.67 0 0 0-16.015 5.073l-.527.372A27.816 27.816 0 0 0 43.847 128zM37.05 90.523l.524-.37A11.75 11.75 0 0 1 44.375 88h69.443l47.17-56h28.92l-39.17 56h156.109l30.528-56h16.883l-24.18 74.47a7.978 7.978 0 0 1-7.608 5.53H43.847a11.816 11.816 0 0 1-6.797-21.477zM400 32h96v16h-96zM376 72h88v16h-88z" fill="#ff5e14" opacity="1" data-original="#000000" class=""></path></g></g></svg>