<svg xmlns="http://www.w3.org/2000/svg" version="1.1" xmlns:xlink="http://www.w3.org/1999/xlink" width="512" height="512" x="0" y="0" viewBox="0 0 64 64" style="enable-background:new 0 0 512 512" xml:space="preserve" class=""><g><path d="M13 13c-2.757 0-5 2.243-5 5s2.243 5 5 5 5-2.243 5-5-2.243-5-5-5zm0 8c-1.654 0-3-1.346-3-3s1.346-3 3-3 3 1.346 3 3-1.346 3-3 3zm48.459-3.888-29-15a.998.998 0 0 0-.918 0L18.828 8.688A10.92 10.92 0 0 0 13 7C6.935 7 2 11.935 2 18v12a1 1 0 0 0 1 1h6.654a60.275 60.275 0 0 0 2.658 2.726.996.996 0 0 0 1.376 0A60.275 60.275 0 0 0 16.346 31H21v19.812A6.036 6.036 0 0 0 18.812 53H3a1 1 0 0 0 0 2h15.09c-.055.326-.09.659-.09 1s.035.674.09 1H3a1 1 0 0 0 0 2h15.812c1.04 1.79 2.973 3 5.188 3s4.149-1.21 5.188-3H38c1.654 0 3-1.346 3-3 0-.883-.39-1.67-1-2.22V47c0-1.654-1.346-3-3-3h-1.256L33.6 36.85A3.976 3.976 0 0 0 29.768 34H23v-4a1 1 0 0 0-1-1h-3.889c.274-.324.55-.658.826-1H55v12H44a1 1 0 0 0-1 1v20a1 1 0 0 0 1 1h17a1 1 0 0 0 1-1V18a1 1 0 0 0-.541-.888zM24 60c-2.206 0-4-1.794-4-4s1.794-4 4-4 4 1.794 4 4-1.794 4-4 4zm14-3h-8.09c.055-.326.09-.659.09-1s-.035-.674-.09-1H38a1.001 1.001 0 0 1 0 2zm-4.344-13H28v-4h4.456zm-3.888-8c.89 0 1.66.573 1.916 1.425l.172.575H27a1 1 0 0 0-1 1v6a1 1 0 0 0 1 1h10c.552 0 1 .449 1 1v6h-8.812A5.998 5.998 0 0 0 24 50c-.341 0-.674.035-1 .09V36zM4 29v-5.333C5.109 25.534 6.532 27.395 7.889 29zm9 2.605C9.965 28.587 4 21.859 4 18c0-4.962 4.038-9 9-9s9 4.038 9 9c0 1.394-.786 3.165-1.925 5H20v.124c-2.014 3.202-5.088 6.578-7 8.481zM20.464 26c.237-.33.468-.664.693-1H55v1zM51 42v1.726l-.17-.254a1 1 0 0 0-1.66 0l-.17.254V42zm-6 0h2v5a1 1 0 0 0 1.83.56L50 45.82l1.17 1.738A1 1 0 0 0 53 47v-5h2v8H45zm4 10h2v1.726l-.17-.254a1 1 0 0 0-1.66 0l-.17.254zm-4 0h2v5a1 1 0 0 0 1.83.56L50 55.82l1.17 1.738A1 1 0 0 0 53 57v-5h2v8H45zm15 8h-3V24a1 1 0 0 0-1-1H22.382c.97-1.759 1.618-3.496 1.618-5 0-3.132-1.323-5.956-3.431-7.961L32 4.126l28 14.482zM27 15c0 2.757 2.243 5 5 5s5-2.243 5-5-2.243-5-5-5-5 2.243-5 5zm8 0c0 1.654-1.346 3-3 3s-3-1.346-3-3 1.346-3 3-3 3 1.346 3 3zM24 53c-1.654 0-3 1.346-3 3s1.346 3 3 3 3-1.346 3-3-1.346-3-3-3zm0 4c-.551 0-1-.449-1-1s.449-1 1-1 1 .449 1 1-.449 1-1 1zM2 48a1 1 0 0 1 1-1h9a1 1 0 0 1 0 2H3a1 1 0 0 1-1-1zm0-5a1 1 0 0 1 1-1h8a1 1 0 0 1 0 2H3a1 1 0 0 1-1-1zm0-5a1 1 0 0 1 1-1h7a1 1 0 0 1 0 2H3a1 1 0 0 1-1-1z" fill="#ef4823" opacity="1" data-original="#000000"></path></g></svg>